HIERARCHY
ROOT Hips
{
  OFFSET 279.157 85.6768 304.565
  CHANNELS 6 Xposition Yposition Zposition Zrotation Xrotation Yrotation
  JOINT LeftUpLeg
  {
    OFFSET 8.64259 1.95398 -2.38835
    CHANNELS 3 Zrotation Xrotation Yrotation
    JOINT LeftLeg
    {
      OFFSET 43.7702 0 0
      CHANNELS 3 Zrotation Xrotation Yrotation
      JOINT LeftFoot
      {
        OFFSET 40.6238 0 0
        CHANNELS 3 Zrotation Xrotation Yrotation
        JOINT LeftToeBase
        {
          OFFSET 12.7242 0 0
          CHANNELS 3 Zrotation Xrotation Yrotation
          End Site
          {
            OFFSET 0 0 0
          }
        }
      }
    }
  }
  JOINT RightUpLeg
  {
    OFFSET -8.2249 1.95398 -2.59336
    CHANNELS 3 Zrotation Xrotation Yrotation
    JOINT RightLeg
    {
      OFFSET 43.5653 0 0
      CHANNELS 3 Zrotation Xrotation Yrotation
      JOINT RightFoot
      {
        OFFSET 40.6238 0 0
        CHANNELS 3 Zrotation Xrotation Yrotation
        JOINT RightToeBase
        {
          OFFSET 12.7242 0 0
          CHANNELS 3 Zrotation Xrotation Yrotation
          End Site
          {
            OFFSET 0 0 0
          }
        }
      }
    }
  }
  JOINT Spine
  {
    OFFSET 0.165834 0.87714 6.61349
    CHANNELS 3 Zrotation Xrotation Yrotation
    JOINT Spine1
    {
      OFFSET 7.38963 1.71661e-005 0
      CHANNELS 3 Zrotation Xrotation Yrotation
      JOINT Spine2
      {
        OFFSET 11.9445 1.14441e-005 0
        CHANNELS 3 Zrotation Xrotation Yrotation
        JOINT Spine3
        {
          OFFSET 14.7254 4.19617e-005 0
          CHANNELS 3 Zrotation Xrotation Yrotation
          JOINT Spine4
          {
            OFFSET 10.9679 0 0
            CHANNELS 3 Zrotation Xrotation Yrotation
            JOINT RightShoulder
            {
              OFFSET 2.46616 -1.6653 3.69651
              CHANNELS 3 Zrotation Xrotation Yrotation
              JOINT RightArm
              {
                OFFSET 13.0012 0 0
                CHANNELS 3 Zrotation Xrotation Yrotation
                JOINT RightForeArm
                {
                  OFFSET 28.7848 1.52588e-005 0
                  CHANNELS 3 Zrotation Xrotation Yrotation
                  JOINT RightHand
                  {
                    OFFSET 26.5688 1.52588e-005 0
                    CHANNELS 3 Zrotation Xrotation Yrotation
                    End Site
                    {
                      OFFSET 0 0 0
                    }
                  }
                }
              }
            }
            JOINT LeftShoulder
            {
              OFFSET 2.38034 -1.29275 -3.7523
              CHANNELS 3 Zrotation Xrotation Yrotation
              JOINT LeftArm
              {
                OFFSET 16.3182 6.10351e-005 0
                CHANNELS 3 Zrotation Xrotation Yrotation
                JOINT LeftForeArm
                {
                  OFFSET 27.0901 0 0
                  CHANNELS 3 Zrotation Xrotation Yrotation
                  JOINT LeftHand
                  {
                    OFFSET 24.5451 1.52588e-005 0
                    CHANNELS 3 Zrotation Xrotation Yrotation
                    End Site
                    {
                      OFFSET 0 0 0
                    }
                  }
                }
              }
            }
            JOINT Neck
            {
              OFFSET 5.0226 -0.0266342 0
              CHANNELS 3 Zrotation Xrotation Yrotation
              JOINT Head
              {
                OFFSET 6.69364 2.86102e-005 0
                CHANNELS 3 Zrotation Xrotation Yrotation
                End Site
                {
                  OFFSET 0 0 0
                }
              }
            }
          }
        }
      }
    }
  }
}
MOTION
Frames:	6
Frame Time:	0.0416667
8.80264 101.762 17.8591 -152.245 -81.6549 -152.853 -175.076 -1.33411 88.1688 -13.8199 4.84441 -0.0572002 68.8514 4.84728 -1.04732 16.4333 -9.43883 6.97962 173.634 -2.83423 89.8717 -14.2897 -0.331295 0.755772 69.2236 -4.73738 2.78269 22.8889 1.39744 3.43097 0.189885 7.66728 -90.1073 11.5397 0.327591 -0.247425 -0.131246 0.316383 -0.261618 -22.6667 0.386804 -0.137537 -2.65402 0.386805 -0.137538 88.3774 -31.6977 -109.25 41.0917 -14.4361 -7.10534 2.59086 -27.7582 -15.1402 -21.5793 -1.26336 -5.43605 -89.8326 -55.5733 80.0986 -20.463 15.3392 -12.7134 -1.23701 11.8144 -9.88886 1.69024 -0.113484 -5.01707 8.38696 -0.52559 -0.394761 -6.25246 -0.468414 0.988732 
8.79405 101.761 17.8562 -151.871 -81.7536 -152.367 -175.06 -1.12516 88.262 -13.9859 4.53905 -0.027056 69.0158 4.83666 -1.33898 16.1327 -9.57338 6.8204 173.749 -2.73918 90.0336 -14.2469 -0.683732 0.73344 68.9902 -4.73565 2.30329 22.9409 1.32798 3.71261 0.205812 7.64641 -90.1401 11.5815 0.343887 -0.314708 -0.0894274 0.3297 -0.329545 -22.6248 0.422568 -0.196808 -2.61216 0.422561 -0.196815 88.5642 -31.3865 -109.017 41.346 -14.3314 -7.03608 3.29797 -27.6262 -14.2951 -22.5075 -1.10324 -6.3686 -90.1761 -55.8924 79.6779 -20.2821 15.212 -12.5185 -1.17871 11.9149 -9.93516 1.40222 -0.121129 -5.29844 8.41683 -0.628666 -0.407232 -6.67424 -0.584504 1.34262 
8.83052 101.772 17.8869 -153.281 -81.8462 -153.97 -175.114 -1.35384 88.0756 -13.6432 5.06372 -0.106047 69.4578 5.27572 -1.49516 15.254 -10.8534 8.52234 173.641 -2.65467 89.8504 -14.4746 -0.917354 0.715993 69.0034 -4.76538 1.81698 21.9058 1.51188 4.44221 0.199699 7.6577 -90.1695 11.5589 0.317963 -0.370452 -0.11207 0.301352 -0.384093 -22.6473 0.414603 -0.257768 -2.63466 0.4146 -0.257764 88.9673 -30.8603 -108.45 41.5499 -14.1669 -7.22861 4.07894 -26.6712 -13.3005 -24.6778 -0.643176 -8.83762 -90.865 -56.8048 78.8975 -19.3985 15.4111 -12.7398 -1.64178 10.7099 -9.37509 1.49537 -0.173935 -6.84341 8.09758 -0.877822 0.188882 -5.72999 -0.939623 1.2009 
8.84038 101.776 17.9745 -153.345 -81.9399 -154.076 -175.072 -1.34479 88.0479 -13.6442 5.104 -0.16977 69.5765 5.36547 -1.43114 15.2558 -10.7863 8.36295 173.505 -2.68342 89.7185 -14.3859 -0.647854 0.796695 69.1838 -4.77633 2.31771 21.8257 1.57096 4.2594 0.171486 7.65739 -90.1625 11.5594 0.265135 -0.350987 -0.111532 0.249428 -0.362323 -22.6467 0.358357 -0.255081 -2.63403 0.358366 -0.255072 88.8342 -30.9389 -108.676 41.3752 -14.1751 -7.2691 4.42798 -27.0083 -13.1628 -24.9851 -0.66953 -8.73395 -90.7343 -56.7704 79.0723 -19.509 15.2969 -12.6919 -1.4973 10.9469 -9.52521 1.6264 -0.149549 -6.05707 8.29697 -0.756244 0.288309 -5.74299 -0.831169 0.885889 
8.85141 101.764 17.9974 -151.089 -81.7047 -151.603 -174.94 -1.29014 88.2576 -13.9775 4.63469 -0.18175 69.8092 5.2852 -1.83194 15.4755 -10.9063 9.00079 173.651 -2.78934 89.9257 -14.231 -0.86022 0.77225 68.9474 -4.7467 2.1553 21.9105 1.47813 4.60438 0.241913 7.66434 -90.1534 11.5458 0.409513 -0.34777 -0.125156 0.393806 -0.36547 -22.6607 0.495097 -0.208612 -2.64801 0.495098 -0.208627 88.6675 -31.4692 -108.785 41.1369 -13.9513 -7.01966 4.1855 -27.3124 -13.2479 -24.2234 -0.813851 -8.07278 -90.9862 -56.1088 78.5874 -20.0508 14.9716 -12.3573 -1.12063 12.1672 -9.75164 1.36093 -0.169336 -6.78735 8.07609 -0.958543 -0.527321 -5.38111 -0.870325 1.38598 
8.89795 101.751 18.0523 -154.723 -82.0226 -155.548 -175.109 -1.21459 87.9402 -14.0309 5.68549 -0.199159 69.5693 5.39589 -1.25725 15.7539 -10.6937 8.94547 173.54 -2.66699 89.5991 -14.3302 -1.32116 0.695572 68.7511 -4.63895 1.76102 22.6402 1.33472 4.1838 0.167809 7.64839 -90.123 11.5774 0.276246 -0.273681 -0.0935519 0.263932 -0.285573 -22.6288 0.345726 -0.178001 -2.61618 0.345726 -0.178 88.6081 -31.603 -108.846 41.0001 -14.1102 -6.76064 4.58645 -26.8496 -13.45 -25.7505 -0.569138 -9.14798 -91.0722 -56.5875 78.566 -19.5231 15.5269 -12.4346 -1.61333 10.3188 -9.5218 1.1525 -0.15955 -6.63672 7.81996 -0.963161 -0.540051 -5.13076 -0.873213 1.48407 
